subject01_walk1_RRA_states
nRows=5
nColumns=47

# SIMM Motion File Header:
name subject01_walk1_RRA_states
datacolumns 47
datarows 5
otherdata 1
range 0.86900000000000011000 0.87100000000000011000
endheader
time	pelvis_tx	pelvis_ty	pelvis_tz	pelvis_tilt	pelvis_list	pelvis_rotation	hip_flexion_r	hip_adduction_r	hip_rotation_r	knee_angle_r	ankle_angle_r	subtalar_angle_r	mtp_angle_r	hip_flexion_l	hip_adduction_l	hip_rotation_l	knee_angle_l	ankle_angle_l	subtalar_angle_l	mtp_angle_l	lumbar_extension	lumbar_bending	lumbar_rotation	pelvis_tx_u	pelvis_ty_u	pelvis_tz_u	pelvis_tilt_u	pelvis_list_u	pelvis_rotation_u	hip_flexion_r_u	hip_adduction_r_u	hip_rotation_r_u	knee_angle_r_u	ankle_angle_r_u	subtalar_angle_r_u	mtp_angle_r_u	hip_flexion_l_u	hip_adduction_l_u	hip_rotation_l_u	knee_angle_l_u	ankle_angle_l_u	subtalar_angle_l_u	mtp_angle_l_u	lumbar_extension_u	lumbar_bending_u	lumbar_rotation_u
      0.86900000000000011000	      0.60363877016333045000	      1.02910987383827130000	      0.03215460056585749800	      4.79279477147248740000	     -1.52397980943320400000	      3.22443050110837780000	     10.30000961307432800000	      1.83636440009207470000	     -7.08457617439716450000	    -20.60539633150673600000	      5.37197426697298310000	      0.01092108212636202700	      0.05660909661559259500	      5.11925770198687590000	     -5.94294401252971930000	     -3.20130793433454560000	    -66.73410468394354200000	     -5.22282943915152220000	     -0.00422796431078632270	     -0.08710762702573568400	    -15.18156919675471200000	      4.70767278409203720000	     -3.82203872562964890000	     -0.05097279697890929500	      0.19162853405641231000	      0.19629665096243981000	      5.06821620507512630000	     -3.27687864728906100000	    -10.67740741324717400000	   -110.57868889491863000000	     25.68362656884445300000	     11.59509584093234300000	     75.30964877942975000000	     20.85470775851506900000	      0.11706214508918809000	     -0.32358049523901738000	    144.89889429353818000000	    -25.63141357134794900000	    -37.74195078190647500000	   -115.13168735329748000000	     62.93903712899845000000	     -0.00631754132300493560	      0.20314655888535488000	     -4.55305181113473180000	     -5.93768240207534340000	     38.28081724339008900000
      0.86950000000000005000	      0.60361320879272962000	      1.02920567422043780000	      0.03225262183004855300	      4.79533044502168870000	     -1.52555081477408460000	      3.21905709182916190000	     10.24469878005466200000	      1.84912429658003790000	     -7.07870476965492210000	    -20.56768115875674900000	      5.38236628598020510000	      0.01098001685077452100	      0.05644638800503842800	      5.19160293390446090000	     -5.95559613459229190000	     -3.22006069306100650000	    -66.79125991941236900000	     -5.19113167031328350000	     -0.00423109282891023350	     -0.08700547094514191100	    -15.18385709787733800000	      4.70462585639867830000	     -3.80289036683939850000	     -0.05127276455797786400	      0.19157156727446606000	      0.19578777787782617000	      5.07439188808708690000	     -3.00718108588559250000	    -10.81632447644094200000	   -110.66429804465366000000	     25.35585626391019100000	     11.89058335613940900000	     75.55043950067586400000	     20.71378613902759700000	      0.11849891439142785000	     -0.32690230792733987000	    144.48227821219083000000	    -24.97672436387321000000	    -37.26879869335761000000	   -113.48974421962315000000	     63.84953212019858900000	     -0.00619070543511552810	      0.20546403510847264000	     -4.59849073946852820000	     -6.24986548673441880000	     38.31252729306535800000
      0.87000000000000011000	      0.60358749731114070000	      1.02930144397850460000	      0.03235038772003818300	      4.79786907456527260000	     -1.52698703392238280000	      3.21361407795194730000	     10.18934567112860300000	      1.86172015731311770000	     -7.07268551287477990000	    -20.52984652048272100000	      5.39268870438374750000	      0.01103954978115930000	      0.05628217379791603000	      5.26374022794803410000	     -5.96792039348568170000	     -3.23857644840560880000	    -66.84759491580740600000	     -5.15898242240934300000	     -0.00423415455667669820	     -0.08690216804188515000	    -15.18616762360901400000	      4.70142308639699370000	     -3.78372628411227160000	     -0.05157325594491353500	      0.19150603705131072000	      0.19527516026407629000	      5.08003500503263350000	     -2.73774241324064120000	    -10.95583240183718500000	   -110.74777311484281000000	     25.02748856482741100000	     12.18653658556155700000	     75.78746673315430400000	     20.57674725098005200000	      0.11980284167995019000	     -0.33030055669830077000	    144.06714881383323000000	    -24.31997298477350700000	    -36.79393818523950400000	   -111.85072873295142000000	     64.74493346824454000000	     -0.00606190592090844440	      0.20775129321363708000	     -4.64354628731420060000	     -6.56104315913676930000	     38.34372115698264600000
      0.87050000000000005000	      0.60356163543989283000	      1.02939717883527120000	      0.03244789638606165900	      4.80041039107581560000	     -1.52828861171376330000	      3.20810116172611610000	     10.13395137012896200000	      1.87415170329715200000	     -7.06651816074465700000	    -20.49189434126027400000	      5.40294374103800120000	      0.01109964407829867900	      0.05611595737165286200	      5.33567033595926520000	     -5.97991578916413680000	     -3.25685436353589890000	    -66.90311114348624200000	     -5.12638925858109040000	     -0.00423715226513719180	     -0.08679772495523409300	    -15.18850058053876100000	      4.69806499067881140000	     -3.76454672841649170000	     -0.05187432675506396100	      0.19143197238129536000	      0.19475891479398985000	      5.08514461526207120000	     -2.46862940995292890000	    -11.09592531546764200000	   -110.82907148444201000000	     24.69862671840937600000	     12.48292121203619600000	     76.02060578193271600000	     20.44393190819542000000	      0.12010978028645222000	     -0.33443520828342987000	    143.65353906528051000000	    -23.66130942996051800000	    -36.31747068051045300000	   -110.21468706494184000000	     65.62520299310875800000	     -0.00591910077559743010	      0.21000685843154782000	     -4.68822000904185200000	     -6.87115748630249000000	     38.37441709569775100000
      0.87100000000000011000	      0.60353562288606044000	      1.02949287452724030000	      0.03254514603503252900	      4.80295413107280660000	     -1.52945571976342330000	      3.20251806112477630000	     10.07851695717101300000	      1.88641870178990970000	     -7.06020253627752490000	    -20.45382654662802200000	      5.41313328151701700000	      0.01115962677017924900	      0.05594772252797863800	      5.40739402423437630000	     -5.99158139684290520000	     -3.27489366182452410000	    -66.95781010470355500000	     -5.09335974896451930000	     -0.00424007323522756530	     -0.08669216614684582800	    -15.19085578013821600000	      4.69455210750948740000	     -3.74535195412958500000	     -0.05217598567080592600	      0.19134936478273148000	      0.19423906828324919000	      5.08972577084219590000	     -2.19985356822282260000	    -11.23656616298981000000	   -110.90822702489784000000	     24.36926843071284000000	     12.77963629961175100000	     76.24996033629140900000	     20.31496624908871200000	      0.12027857644992258000	     -0.33862482502142588000	    143.24147284843551000000	    -23.00080783498570400000	    -35.83945904322748500000	   -108.58165816327265000000	     66.49029389634148400000	     -0.00577452301619973700	      0.21223273167308435000	     -4.73251278765461780000	     -7.18020145363195810000	     38.40458893176277400000
